#!OML:ASF H:\Terrain\Patient Classification 1\Walking\steve\steve.ASF
:FULLY-SPECIFIED
:DEGREES


260
root 8.54615 16.6214 22.6534 5.51913 -2.57322 3.3795
lowerback 1.91978 1.35958 -4.97954
upperback -2.9402 1.58489 -0.949462
thorax -4.22855 0.928931 1.71686
lowerneck -10.9 -1.25552 -3.08325
upperneck 15.4805 -2.16314 5.85225
head 6.60233 -0.739661 2.19527
rclavicle -5.04183e-015 -6.36111e-015
rhumerus -55.7563 -8.07931 -84.2934
rradius 35.826
rwrist -19.489
rhand -24.4333 -38.5907
rfingers 7.12502
rthumb 2.05891 -68.5605
lclavicle -5.04183e-015 -6.36111e-015
lhumerus -26.3527 2.57244 85.4786
lradius 24.4041
lwrist 1.59313
lhand -24.5826 -15.9613
lfingers 7.12502
lthumb 1.91473 14.0098
rfemur -39.1361 0.990397 20.159
rtibia 63.3094
rfoot -13.4707 -0.283998
rtoes -15.742
lfemur -6.89834 3.34005 -29.1014
ltibia 26.6038
lfoot -17.7177 -7.15531
ltoes 0.492476
261
root 8.54549 16.6074 22.8992 5.52934 -2.01991 3.20191
lowerback 2.30115 1.28074 -4.77717
upperback -3.07752 1.46159 -0.910521
thorax -4.57508 0.870756 1.64055
lowerneck -10.6667 -1.30191 -2.94995
upperneck 15.3005 -2.26404 5.95989
head 6.50906 -0.777446 2.19773
rclavicle -1.48064e-014 -1.95306e-014
rhumerus -56.6104 -9.24451 -83.2469
rradius 33.479
rwrist -17.8453
rhand -23.551 -39.3311
rfingers 7.12502
rthumb 2.91102 -69.2909
lclavicle -1.48064e-014 -1.95306e-014
lhumerus -25.0785 0.462766 86.0693
lradius 26.1543
lwrist 3.98743
lhand -24.9828 -16.2923
lfingers 7.12502
lthumb 1.52819 13.6819
rfemur -39.683 0.878782 20.5331
rtibia 60.4696
rfoot -14.4002 -0.996104
rtoes -17.0917
lfemur -5.42217 3.57278 -28.7378
ltibia 25.6527
lfoot -17.3778 -8.00306
ltoes 1.83159
262
root 8.54695 16.6194 23.1577 5.57752 -1.36541 3.35749
lowerback 2.4908 1.13494 -4.86886
upperback -3.22268 1.24431 -0.954204
thorax -4.82248 0.772308 1.65487
lowerneck -10.3991 -1.32001 -2.83991
upperneck 15.2037 -2.32687 6.07647
head 6.43484 -0.797501 2.2112
rclavicle 9.5869e-015 3.08116e-015
rhumerus -57.6423 -10.5099 -81.8782
rradius 31.423
rwrist -15.8758
rhand -24.5408 -37.8738
rfingers 7.12502
rthumb 1.95503 -67.8446
lclavicle 9.5869e-015 3.08116e-015
lhumerus -23.9214 -1.49613 86.5064
lradius 27.9369
lwrist 6.23639
lhand -25.3505 -16.5026
lfingers 7.12502
lthumb 1.17303 13.4739
rfemur -40.3091 0.564055 20.4315
rtibia 57.4691
rfoot -14.7983 -1.6333
rtoes -18.0094
lfemur -3.82388 3.68262 -28.7191
ltibia 24.4273
lfoot -16.7762 -8.63234
ltoes 1.2361
263
root 8.5523 16.6018 23.4205 5.50373 -0.600651 3.93787
lowerback 2.40215 0.912252 -5.39146
upperback -3.10046 0.928805 -1.04361
thorax -4.63353 0.626125 1.87889
lowerneck -10.2615 -1.39955 -2.99727
upperneck 15.0661 -2.4242 6.1977
head 6.37493 -0.847855 2.26711
rclavicle -7.47947e-015 4.42296e-015
rhumerus -58.6709 -11.3184 -80.6028
rradius 30.0586
rwrist -14.0975
rhand -24.3768 -36.0269
rfingers 7.12502
rthumb 2.1135 -65.9961
lclavicle -7.47947e-015 4.42296e-015
lhumerus -22.4482 -2.45018 86.7474
lradius 29.6854
lwrist 7.69284
lhand -25.2204 -16.6048
lfingers 7.12502
lthumb 1.29872 13.371
rfemur -40.5519 -0.0750644 19.845
rtibia 54.318
rfoot -15.3754 -1.08171
rtoes -14.9947
lfemur -1.96013 3.86595 -29.1251
ltibia 23.0364
lfoot -16.1252 -9.44852
ltoes 0.175545
264
root 8.55108 16.5858 23.6779 5.55833 0.137943 4.32067
lowerback 2.27541 0.711646 -5.81254
upperback -2.94539 0.656062 -1.07694
thorax -4.38634 0.495411 2.10067
lowerneck -10.4227 -1.48537 -3.29466
upperneck 14.9545 -2.54596 6.58134
head 6.3819 -0.89156 2.42804
rclavicle 7.19391e-015 -1.00883e-014
rhumerus -59.4039 -12.384 -79.0663
rradius 28.2251
rwrist -11.6731
rhand -23.3793 -35.1118
rfingers 7.12502
rthumb 3.07685 -65.0693
lclavicle 7.19391e-015 -1.00883e-014
lhumerus -20.7783 -3.40074 86.8444
lradius 31.4958
lwrist 9.4102
lhand -24.8681 -16.5805
lfingers 7.12502
lthumb 1.63891 13.3929
rfemur -40.788 -0.419452 19.4286
rtibia 50.9666
rfoot -16.0498 -0.504659
rtoes -12.4443
lfemur -0.11413 4.09016 -29.2131
ltibia 21.362
lfoot -15.2277 -10.4093
ltoes 0.858623
265
root 8.54253 16.5924 23.9393 5.70269 0.825536 4.37434
lowerback 2.26107 0.514779 -6.01662
upperback -2.94884 0.388349 -1.00065
thorax -4.36378 0.369961 2.3106
lowerneck -10.6231 -1.49873 -3.29932
upperneck 14.9463 -2.58157 6.71539
head 6.41805 -0.894721 2.46829
rclavicle 5.65566e-015 8.44835e-015
rhumerus -60.2501 -13.8077 -76.9185
rradius 26.0779
rwrist -8.51988
rhand -22.0731 -36.0169
rfingers 7.12502
rthumb 4.33817 -65.9525
lclavicle 5.65566e-015 8.44835e-015
lhumerus -19.329 -4.35481 86.8926
lradius 33.2844
lwrist 11.1507
lhand -25.164 -16.5655
lfingers 7.12502
lthumb 1.35317 13.41
rfemur -41.0889 -0.524989 19.3534
rtibia 47.437
rfoot -16.4805 -0.723171
rtoes -15.8489
lfemur 1.63751 4.27598 -28.9
ltibia 19.6982
lfoot -14.2688 -10.9954
ltoes 0.699953
266
root 8.53239 16.5779 24.2051 5.79165 1.34816 4.38794
lowerback 2.35345 0.391834 -6.14941
upperback -3.0834 0.207864 -0.94301
thorax -4.54388 0.293414 2.45448
lowerneck -10.4533 -1.47575 -2.96633
upperneck 14.8796 -2.55163 6.38357
head 6.35778 -0.89184 2.30865
rclavicle 3.42379e-015 -7.25564e-015
rhumerus -61.5708 -15.0237 -74.8068
rradius 24.6519
rwrist -5.91082
rhand -21.4519 -37.5188
rfingers 7.12502
rthumb 4.93804 -67.4412
lclavicle 3.42379e-015 -7.25564e-015
lhumerus -18.3613 -5.06776 86.9355
lradius 35.2333
lwrist 12.7247
lhand -25.3969 -16.7971
lfingers 7.12502
lthumb 1.12826 13.1797
rfemur -41.2188 -0.340989 19.2105
rtibia 43.7617
rfoot -16.6954 -0.178402
rtoes -13.138
lfemur 3.46631 4.64665 -28.5476
ltibia 18.0138
lfoot -13.3147 -11.6515
ltoes 1.26092
267
root 8.51786 16.5528 24.4675 6.09964 1.76654 4.4591
lowerback 2.09649 0.29685 -6.4062
upperback -3.15505 0.0886632 -0.900302
thorax -4.4649 0.243026 2.65017
lowerneck -10.234 -1.52362 -2.90817
upperneck 14.6166 -2.60534 6.31667
head 6.23756 -0.927251 2.27156
rclavicle -5.98946e-015 -7.20594e-016
rhumerus -62.8266 -16.2954 -72.6168
rradius 23.5075
rwrist -3.40623
rhand -21.0445 -38.4093
rfingers 7.12502
rthumb 5.33135 -68.3223
lclavicle -5.98946e-015 -7.20594e-016
lhumerus -17.2813 -5.95244 86.8912
lradius 37.2867
lwrist 14.5231
lhand -25.331 -16.958
lfingers 7.12502
lthumb 1.19188 13.0185
rfemur -41.4839 0.274819 18.808
rtibia 40.0105
rfoot -16.7471 0.646178
rtoes -5.94042
lfemur 5.07223 5.02346 -28.2425
ltibia 16.0925
lfoot -11.9666 -12.4532
ltoes 3.85954
268
root 8.51341 16.5587 24.728 6.62966 2.38577 4.40776
lowerback 1.74505 0.144613 -6.45645
upperback -3.3182 -0.0897291 -0.752166
thorax -4.41948 0.161254 2.84227
lowerneck -9.78853 -1.62571 -2.68003
upperneck 14.0255 -2.68695 5.86789
head 5.96928 -1.00447 2.0817
rclavicle -6.03469e-015 -7.33018e-015
rhumerus -64.2596 -17.7543 -69.6859
rradius 22.2529
rwrist -0.212482
rhand -20.7609 -38.4748
rfingers 7.12502
rthumb 5.60517 -68.3807
lclavicle -6.03469e-015 -7.33018e-015
lhumerus -16.1547 -6.84042 86.9871
lradius 39.2254
lwrist 16.1716
lhand -25.4914 -16.8434
lfingers 7.12502
lthumb 1.03692 13.1339
rfemur -42.0212 0.684126 18.4596
rtibia 36.2931
rfoot -16.4458 0.428369
rtoes -9.05051
lfemur 6.55424 5.07609 -27.8416
ltibia 13.9209
lfoot -10.4618 -12.8757
ltoes 3.68171
269
root 8.514 16.5647 24.9973 6.98642 3.05579 4.16436
lowerback 1.78154 0.0455493 -6.14046
upperback -3.69889 -0.22187 -0.608487
thorax -4.82519 0.107554 2.82181
lowerneck -9.78607 -1.90011 -2.87117
upperneck 14.3615 -3.05058 5.8895
head 6.09429 -1.18489 2.09185
rclavicle -1.0706e-014 1.88845e-015
rhumerus -66.3333 -19.1423 -66.2666
rradius 20.9127
rwrist 3.3938
rhand -20.7629 -38.0809
rfingers 7.12502
rthumb 5.60324 -67.9868
lclavicle -1.0706e-014 1.88845e-015
lhumerus -15.509 -7.71038 87.1092
lradius 41.1224
lwrist 17.3233
lhand -25.3455 -16.16
lfingers 7.12502
lthumb 1.17785 13.8165
rfemur -42.3339 1.09577 18.2326
rtibia 32.8162
rfoot -15.9793 0.250063
rtoes -11.4193
lfemur 8.58125 5.04239 -27.247
ltibia 11.277
lfoot -8.97313 -12.97
ltoes 2.06782
270
root 8.50203 16.5572 25.2722 7.1454 3.63322 3.73618
lowerback 1.78631 -0.0503279 -5.75913
upperback -3.88568 -0.334898 -0.46332
thorax -5.01144 0.049199 2.76613
lowerneck -10.9554 -2.20021 -2.95711
upperneck 15.5693 -3.5215 6.07579
head 6.70896 -1.36558 2.12283
rclavicle 3.77943e-015 1.31198e-014
rhumerus -68.2369 -20.4487 -62.9765
rradius 19.7143
rwrist 6.82028
rhand -20.1663 -38.0445
rfingers 7.12502
rthumb 6.17924 -67.9344
lclavicle 3.77943e-015 1.31198e-014
lhumerus -14.6913 -8.60981 86.9543
lradius 43.0034
lwrist 18.315
lhand -25.0205 -15.3449
lfingers 7.12502
lthumb 1.4918 14.6296
rfemur -42.5165 1.93115 18.0705
rtibia 29.95
rfoot -16.0848 -0.0272255
rtoes -10.2165
lfemur 11.862 4.46069 -26.5229
ltibia 6.48851
lfoot -6.67032 -12.0046
ltoes 2.87217
271
root 8.49918 16.5493 25.5414 7.51006 4.30159 3.73956
lowerback 1.26736 -0.267707 -5.76545
upperback -3.75075 -0.57939 -0.346527
thorax -4.54989 -0.0852192 2.90101
lowerneck -9.79725 -1.99056 -3.41547
upperneck 13.9639 -3.1766 6.59538
head 5.99623 -1.22668 2.39434
rclavicle -1.09786e-014 2.28602e-014
rhumerus -69.3874 -21.635 -60.0175
rradius 18.831
rwrist 9.62976
rhand -19.6068 -38.2545
rfingers 7.12502
rthumb 6.71938 -68.1279
lclavicle -1.09786e-014 2.28602e-014
lhumerus -13.3313 -9.30215 86.8397
lradius 44.8665
lwrist 19.6317
lhand -25.5708 -15.826
lfingers 7.12502
lthumb 0.960247 14.1515
rfemur -42.9266 2.13103 17.6157
rtibia 27.4341
rfoot -16.2278 -0.202181
rtoes -12.3804
lfemur 15.7101 3.73546 -26.3858
ltibia 1.59028e-014
lfoot -3.46878 -10.4473
ltoes 3.83094
272
root 8.45989 16.545 25.8399 6.56661 5.51642 4.22479
lowerback 1.96713 -0.619169 -6.84934
upperback -3.25066 -1.11677 -0.148995
thorax -4.35978 -0.327995 3.7479
lowerneck -10.1841 -2.08084 -3.66331
upperneck 13.8423 -3.23265 6.517
head 6.03034 -1.26734 2.40271
rclavicle 1.40066e-014 -1.2424e-014
rhumerus -70.6437 -22.6017 -56.9641
rradius 18.1325
rwrist 12.2557
rhand -19.5063 -38.3692
rfingers 7.12502
rthumb 6.81646 -68.2395
lclavicle 1.40066e-014 -1.2424e-014
lhumerus -12.3517 -9.68993 86.8122
lradius 46.8772
lwrist 20.5825
lhand -26.2963 -16.7247
lfingers 7.12502
lthumb 0.259543 13.2549
rfemur -41.3482 2.46977 16.6133
rtibia 24.9877
rfoot -16.8576 -1.01041
rtoes -14.0621
lfemur 17.8274 2.53502 -26.4364
ltibia -2.54444e-014
lfoot -3.51892 -10.229
ltoes 1.80999
273
root 8.4697 16.5769 26.1078 6.75375 5.92814 4.40377
lowerback 2.26653 -0.733027 -6.81928
upperback -3.52236 -1.30212 -0.124734
thorax -4.79494 -0.39863 3.77489
lowerneck -10.4113 -1.99414 -2.85209
upperneck 14.2134 -3.05063 5.17413
head 6.14444 -1.23068 1.85616
rclavicle -1.50257e-014 -5.76476e-015
rhumerus -72.5614 -23.247 -53.7062
rradius 17.6441
rwrist 14.7086
rhand -19.2523 -38.6
rfingers 7.12502
rthumb 7.06162 -68.4622
lclavicle -1.50257e-014 -5.76476e-015
lhumerus -12.1768 -10.0497 86.7303
lradius 49.036
lwrist 20.9572
lhand -26.5836 -17.3984
lfingers 7.12502
lthumb -0.0179346 12.5814
rfemur -41.4096 1.41158 16.8173
rtibia 23.1838
rfoot -16.5333 0.188071
rtoes -14.1138
lfemur 18.523 2.03642 -26.3732
ltibia -3.18055e-014
lfoot -3.37729 -9.87613
ltoes -1.25586
